# xmcd CD database file generated by OrangeCD 5.2
#
# Track frame offsets:
#	225
#	14083
#	31355
#	45559
#	63461
#	79176
#	94007
#	107598
#	121436
#	133415
#	147861
#	159651
#	173242
#	191674
#	207319
#	223843
#	236444
#	250163
#	263713
#	276259
#	291729
#
# Disc length: 4097 seconds
#
# Revision: 2
# Processed by: cddbd v1.5.1PL0 Copyright (c) Steve Scherf et al.
# Submitted via: OrangeCD 5.2
#
DISCID=4a0ffe15
DTITLE=Scooter Lee - More of the Best And Then More...
DYEAR=2002
DGENRE=Country
TTITLE0=Roll Back The Rug
TTITLE1=Pride and Joy
TTITLE2=Traces
TTITLE3=Last Time Uh-Huh
TTITLE4=Little Jalapeno
TTITLE5=Wonderful One
TTITLE6=Wanna Make You Mine
TTITLE7=Splish Splash
TTITLE8=Moving On Up
TTITLE9=If You Love Me
TTITLE10=If You Don't Straighten Up
TTITLE11=Twistin' The Night Away
TTITLE12=Let Me Call You Sweetheart
TTITLE13=On Your Own
TTITLE14=I Love My Louisiana Man
TTITLE15=Well Oiled Lovin' Machine
TTITLE16=Barefootin'
TTITLE17=Rock and Roll Waltz
TTITLE18=Steppin' Out
TTITLE19=Wasn't That a Party
TTITLE20=Retro Rex (The Robot)
EXTD=
EXTT0=
EXTT1=
EXTT2=
EXTT3=
EXTT4=
EXTT5=
EXTT6=
EXTT7=
EXTT8=
EXTT9=
EXTT10=
EXTT11=
EXTT12=
EXTT13=
EXTT14=
EXTT15=
EXTT16=
EXTT17=
EXTT18=
EXTT19=
EXTT20=
PLAYORDER=
